<svg version="1.1" id="marcofugaro" xmlns="http://www.w3.org/2000/svg" xmlns:xlink="http://www.w3.org/1999/xlink" x="0px" y="0px"
	 viewBox="0 0 436.6 283.2" enable-background="new 0 0 436.6 283.2" xml:space="preserve">
<linearGradient id="SVGID_1_" gradientUnits="userSpaceOnUse" x1="145.5941" y1="60.2713" x2="100.9956" y2="106.6187">
	<stop  offset="0" style="stop-color:#78AB46"/>
	<stop  offset="0.3697" style="stop-color:#76A845"/>
	<stop  offset="0.5995" style="stop-color:#70A042"/>
	<stop  offset="0.7912" style="stop-color:#66913C"/>
	<stop  offset="0.9609" style="stop-color:#587D33"/>
	<stop  offset="1" style="stop-color:#547731"/>
</linearGradient>
<polygon fill="url(#SVGID_1_)" points="68.7,69.3 138,139 138,0 "/>
<polygon fill="#78AB46" points="0,0 34.7,104.3 138,139 "/>
<linearGradient id="SVGID_2_" gradientUnits="userSpaceOnUse" x1="0.8319" y1="69.1677" x2="25.1225" y2="58.8473">
	<stop  offset="0" style="stop-color:#78AB46"/>
	<stop  offset="0.3697" style="stop-color:#76A845"/>
	<stop  offset="0.5995" style="stop-color:#70A042"/>
	<stop  offset="0.7912" style="stop-color:#66913C"/>
	<stop  offset="0.9609" style="stop-color:#587D33"/>
	<stop  offset="1" style="stop-color:#547731"/>
</linearGradient>
<polygon fill="url(#SVGID_2_)" points="0,0 0,139 34.7,104.3 "/>
<path fill="#FFFFFF" d="M132.5,214.1c0,14.9-12.3,28.5-27.4,30.6c-15.1,2.1-27.4-8.2-27.5-23v-43.9l14.1-1.9v43.8
	c0,3.5,1.4,6.5,3.9,8.7c2.5,2.1,5.9,3,9.4,2.5c3.5-0.5,6.8-2.2,9.3-5c2.5-2.8,3.8-6.2,3.9-9.7l-0.1,0v-43.9l14.1-1.9v43.8
	L132.5,214.1z"/>
<path fill="#FFFFFF" d="M159.2,193.2c1.1-2.9,2.9-5.6,5.1-8c4.2-4.7,9.9-7.8,15.9-8.6l0.2,0c4.5-0.5,8.8,0.2,12.4,2.2l10.2-11.2
	c-6.2-4-13.9-5.9-22.5-4.8l-0.3,0c-20.1,2.8-36.5,20.9-36.7,40.6c-0.2,19.9,15.9,33.7,36.2,31.1c5.4-0.7,14.2-3.6,22.2-11.2v6.9
	l14-1.9v-42.8L159.2,193.2z M196,212.2c-4.2,4.6-9.8,7.7-15.8,8.5l-0.3,0c-6,0.8-11.6-0.8-15.9-4.4c-2.8-2.4-4.7-5.5-5.7-9.1l43.6-6
	C201.1,205.2,199,208.9,196,212.2z"/>
<path fill="#FFFFFF" d="M262.7,178.7"/>
<path fill="#FFFFFF" d="M342.1,180.9c7.4-4.3,12.4-12.2,12.4-20.6c0-11.5-9.7-19.6-21.4-18L306,146v69.3l15-1.9v-27.7l7.1-1
	l13.1,25.9l15-2.1L342.1,180.9z M340.4,162.3c0,2.9-1.7,5.6-4.2,7l-6.3-12.5l-0.5-0.2l4-0.5C337.3,155.6,340.4,158.4,340.4,162.3z"
	/>
<path fill="#FFFFFF" d="M436.6,163.2c0,19.8-16.5,38.2-36.7,41s-36.7-11.1-36.7-30.9c0-19.8,16.5-38.2,36.7-41
	S436.6,143.4,436.6,163.2z M377.8,171.3c0,12,9.9,20.3,22.1,18.6c12.2-1.7,22.1-12.8,22.1-24.7c0-12-9.9-20.3-22.1-18.6
	C387.7,148.2,377.8,159.3,377.8,171.3z"/>
<path fill="#FFFFFF" d="M410.7,166.9c0,5.9-4.8,11.3-10.8,12.1s-10.8-3.3-10.8-9.1s4.8-11.3,10.8-12.1S410.7,161,410.7,166.9z"/>
<path fill="#FFFFFF" d="M61.1,178.7l-41.5,5.7v16.1l34.3-4.7v17.4l-34.3,4.7v36.4l-17.8,2.5v-87.3l59.3-8.2V178.7z"/>
<polygon fill="#FFFFFF" points="214.1,124.3 229.7,122.2 196.3,56.4 194.3,52.8 192.2,57 156.1,132.3 172,130.1 193.9,84.5 "/>
<path fill="#FFFFFF" d="M273.2,85.8c7.4-4.3,12.5-12.3,12.5-20.7c0-11.5-9.2-19.7-20.9-18.1L238,50.8v69.3l14-1.9V90.4l7.2-1
	l13.2,26.9l14.7-2 M271.6,67.1c0,2.9-1.7,5.4-4.2,6.9l-6.3-12.6l3.5-0.5C268.5,60.4,271.6,63.3,271.6,67.1z"/>
<path fill="#FFFFFF" d="M345.2,53.2c-13.7-6.8-34.4,4.2-34.4,22.8c0,19.5,21.9,24.3,35.2,12.6l9.1,8.9c-6.4,6-14.5,10.3-23.4,11.5
	c-20.2,2.8-36.7-11.1-36.7-30.9c0-19.8,16.5-38.2,36.7-41c8.5-1.2,16.4,0.6,22.6,4.5L345.2,53.2z"/>
<path fill="#FFFFFF" d="M434.3,58.8c0,19.8-16.5,38.2-36.7,41c-20.2,2.8-36.7-11.1-36.7-30.9c0-19.8,16.5-38.2,36.7-41
	S434.3,39,434.3,58.8z M375.6,66.9c0,12,9.9,20.3,22.1,18.6c12.2-1.7,22.1-12.8,22.1-24.7s-9.9-20.3-22.1-18.6
	C385.5,43.9,375.6,54.9,375.6,66.9z"/>
<path fill="#FFFFFF" d="M408.5,62.5c0,5.9-4.8,11.3-10.8,12.1s-10.8-3.3-10.8-9.1s4.8-11.3,10.8-12.1
	C403.7,52.5,408.5,56.6,408.5,62.5z"/>
<linearGradient id="SVGID_3_" gradientUnits="userSpaceOnUse" x1="350.1898" y1="265.5244" x2="274.3169" y2="229.5846">
	<stop  offset="0.2698" style="stop-color:#78AB46"/>
	<stop  offset="0.4074" style="stop-color:#74A644"/>
	<stop  offset="0.5783" style="stop-color:#6A963E"/>
	<stop  offset="0.7662" style="stop-color:#587D34"/>
	<stop  offset="0.8056" style="stop-color:#547731"/>
</linearGradient>
<polygon fill="url(#SVGID_3_)" points="296,247.5 296,263 246,283.2 418,259.5 418,230.6 "/>
<linearGradient id="SVGID_4_" gradientUnits="userSpaceOnUse" x1="271.8714" y1="287.9131" x2="270.2528" y2="260.3972">
	<stop  offset="0.2698" style="stop-color:#78AB46"/>
	<stop  offset="0.4569" style="stop-color:#76A845"/>
	<stop  offset="0.584" style="stop-color:#709F41"/>
	<stop  offset="0.6932" style="stop-color:#65903B"/>
	<stop  offset="0.7918" style="stop-color:#577B32"/>
	<stop  offset="0.8056" style="stop-color:#547731"/>
</linearGradient>
<polygon fill="url(#SVGID_4_)" points="246,266.5 246,283.2 296,263 "/>
<polygon fill="#78AB46" points="296,263 296,247.5 296,234.1 295.4,234.2 79.3,278.4 246,266.5 246.3,266.5 "/>
<polygon fill="#FFFFFF" points="240.8,224.3 224.9,226.5 261,151.2 263.1,147 265.1,150.7 298.5,216.4 282.9,218.5 262.7,178.7 "/>
</svg>
